<?xml version="1.0" encoding="UTF-8" standalone="no"?>
<svg
   xmlns:dc="http://purl.org/dc/elements/1.1/"
   xmlns:cc="http://creativecommons.org/ns#"
   xmlns:rdf="http://www.w3.org/1999/02/22-rdf-syntax-ns#"
   xmlns:svg="http://www.w3.org/2000/svg"
   xmlns="http://www.w3.org/2000/svg"
   height="128"
   viewBox="0 0 128 128"
   width="128"
   version="1.1"
   id="svg4">
  <style
     id="style835"></style>
  <metadata
     id="metadata10">
    <rdf:RDF>
      <cc:Work
         rdf:about="">
        <dc:format>image/svg+xml</dc:format>
        <dc:type
           rdf:resource="http://purl.org/dc/dcmitype/StillImage" />
        <dc:title></dc:title>
      </cc:Work>
    </rdf:RDF>
  </metadata>
  <defs
     id="defs8" />
  <path
     id="path2"
     style="fill:#e0e0e0;fill-opacity:1;stroke-width:0.999999"
     d="M 19.421875,8 C 13.109875,8 8,13.109875 8,19.421875 v 5.718749 H 88 V 19.421875 C 88,13.109875 82.889952,8 76.578128,8 Z m 51.437501,5.71875 h 5.718752 v 5.703125 H 70.859376 Z M 8,30.859376 V 76.578128 C 8,82.890128 13.110047,88 19.421875,88 H 40 v 2.171872 C 35.05836,93.024912 32.010136,98.293904 32,104 c 0,8.83655 7.163448,16 16,16 8.83656,0 16,-7.16345 16,-16 C 63.9956,98.288184 60.946576,93.012152 56,90.156248 V 88 H 76.578128 C 82.890128,88 88,82.890128 88,76.578128 V 56 h 2.171872 c 2.853048,4.94164 8.122032,7.989864 13.828128,8 8.83655,0 16,-7.16344 16,-16 0,-8.836552 -7.16345,-16 -16,-16 -5.711816,0.0044 -10.987848,3.053416 -13.843752,8 H 88 v -9.140624 z" />
</svg>
